<svg width="25" height="27" viewBox="0 0 25 27" fill="none" xmlns="http://www.w3.org/2000/svg">
<path d="M9.35703 7.96968H15.813M19.0779 25.6114H17.2942H20.5469C22.2037 25.6114 23.5469 24.2682 23.5469 22.6114V9.44505C23.5469 9.17984 23.4415 8.92548 23.254 8.73795L16.5333 2.01726C16.3458 1.82972 16.0914 1.72437 15.8262 1.72437H3.9082C2.80363 1.72437 1.9082 2.6198 1.9082 3.72437V22.6114C1.9082 24.2682 3.25142 25.6114 4.90827 25.6114C5.98565 25.6114 7.03517 25.6114 8.41305 25.6114H6.97498M19.0779 25.6114V19.665H7.97498C7.4227 19.665 6.97498 20.1127 6.97498 20.665V25.6114M19.0779 25.6114H6.97498" stroke="#334155" stroke-width="2" stroke-linecap="round"/>
</svg>
