<svg width="21" height="27" viewBox="0 0 21 27" fill="none" xmlns="http://www.w3.org/2000/svg">
<path d="M8.52079 25.5385H3.15625C2.05168 25.5385 1.15625 24.643 1.15625 23.5385V3.73023C1.15625 2.62566 2.05168 1.73022 3.15625 1.73022H11.4653L19.8105 10.0754V14.9353" stroke="#334155" stroke-width="2" stroke-linecap="round"/>
<path d="M11.6133 1.82861V8.07556C11.6133 9.18013 12.5087 10.0756 13.6133 10.0756H19.9577" stroke="#334155" stroke-width="1.5" stroke-linecap="round"/>
<circle cx="16.3759" cy="22.142" r="1.01649" fill="#334155"/>
<path d="M11.8421 22.1287C11.8142 23.0026 14.0826 24.7505 16.2473 24.7505C18.4119 24.7505 20.3733 23.0026 20.3453 22.1287" stroke="#334155" stroke-linecap="round"/>
<path d="M11.8557 22.0652C11.8278 21.1912 14.0857 19.4434 16.2503 19.4434C18.415 19.4434 20.3746 21.1912 20.3466 22.0652" stroke="#334155" stroke-linecap="round"/>
</svg>
