<svg width="21" height="26" viewBox="0 0 21 26" fill="none" xmlns="http://www.w3.org/2000/svg">
<path d="M8.48173 24.9999H3.11719C2.01262 24.9999 1.11719 24.1045 1.11719 22.9999V3.19165C1.11719 2.08708 2.01262 1.19165 3.11719 1.19165H11.4262L19.7714 9.53686V14.3967" stroke="#FF0000" stroke-width="2" stroke-linecap="round"/>
<path d="M11.5742 1.29004V7.53699C11.5742 8.64156 12.4696 9.53699 13.5742 9.53699H19.9187" stroke="#FF0000" stroke-width="1.5" stroke-linecap="round"/>
<circle cx="16.3368" cy="21.6034" r="0.516493" fill="#FF0000" stroke="#FF0000"/>
<path d="M11.803 21.5901C11.7751 22.464 14.0436 24.2119 16.2082 24.2119C18.3729 24.2119 20.3342 22.464 20.3062 21.5901" stroke="#FF0000" stroke-linecap="round"/>
<path d="M11.8167 21.5266C11.7888 20.6527 14.0466 18.9048 16.2112 18.9048C18.3759 18.9048 20.3355 20.6527 20.3075 21.5266" stroke="#FF0000" stroke-linecap="round"/>
</svg>
